<svg xmlns="http://www.w3.org/2000/svg"><symbol id="link" viewBox="0 -960 960 960"><path d="M440-280H280q-83 0-141.5-58.5T80-480q0-83 58.5-141.5T280-680h160v80H280q-50 0-85 35t-35 85q0 50 35 85t85 35h160v80zM320-440v-80h320v80H320zm200 160v-80h160q50 0 85-35t35-85q0-50-35-85t-85-35H520v-80h160q83 0 141.5 58.5T880-480q0 83-58.5 141.5T680-280H520z"/></symbol><symbol id="ink-highlighter" viewBox="0 -960 960 960"><path d="M80 0v-160h800V0H80zm504-480L480-584 320-424l103 104 161-160zm-47-160l103 103 160-159-104-104-159 160zm-84-29l216 216-189 190q-24 24-56.5 24T367-263l-27 23H140l126-125q-24-24-25-57.5t23-57.5l189-189zm0 0l187-187q24-24 56.5-24t56.5 24l104 103q24 24 24 56.5T857-640L669-453 453-669z"/></symbol><symbol id="list-bullet" viewBox="0 -960 960 960"><path d="M280-600v-80h560v80H280zm0 160v-80h560v80H280zm0 160v-80h560v80H280zM160-600q-17 0-28.5-11.5T120-640q0-17 11.5-28.5T160-680q17 0 28.5 11.5T200-640q0 17-11.5 28.5T160-600zm0 160q-17 0-28.5-11.5T120-480q0-17 11.5-28.5T160-520q17 0 28.5 11.5T200-480q0 17-11.5 28.5T160-440zm0 160q-17 0-28.5-11.5T120-320q0-17 11.5-28.5T160-360q17 0 28.5 11.5T200-320q0 17-11.5 28.5T160-280z"/></symbol><symbol id="more-horiz" viewBox="0 -960 960 960"><path d="M240-400q-33 0-56.5-23.5T160-480q0-33 23.5-56.5T240-560q33 0 56.5 23.5T320-480q0 33-23.5 56.5T240-400zm240 0q-33 0-56.5-23.5T400-480q0-33 23.5-56.5T480-560q33 0 56.5 23.5T560-480q0 33-23.5 56.5T480-400zm240 0q-33 0-56.5-23.5T640-480q0-33 23.5-56.5T720-560q33 0 56.5 23.5T800-480q0 33-23.5 56.5T720-400z"/></symbol><symbol id="italic" viewBox="0 -960 960 960"><path d="M200-200v-100h160l120-360H320v-100h400v100H580L460-300h140v100H200z"/></symbol><symbol id="sentiment-satisfied" viewBox="0 -960 960 960"><path d="M620-520q25 0 42.5-17.5T680-580q0-25-17.5-42.5T620-640q-25 0-42.5 17.5T560-580q0 25 17.5 42.5T620-520zm-280 0q25 0 42.5-17.5T400-580q0-25-17.5-42.5T340-640q-25 0-42.5 17.5T280-580q0 25 17.5 42.5T340-520zm140 260q68 0 123.5-38.5T684-400h-66q-22 37-58.5 58.5T480-320q-43 0-79.5-21.5T342-400h-66q25 63 80.5 101.5T480-260zm0 180q-83 0-156-31.5T197-197q-54-54-85.5-127T80-480q0-83 31.5-156T197-763q54-54 127-85.5T480-880q83 0 156 31.5T763-763q54 54 85.5 127T880-480q0 83-31.5 156T763-197q-54 54-127 85.5T480-80zm0-400zm0 320q134 0 227-93t93-227q0-134-93-227t-227-93q-134 0-227 93t-93 227q0 134 93 227t227 93z"/></symbol><symbol id="share" viewBox="0 -960 960 960"><path d="M680-80q-50 0-85-35t-35-85q0-6 3-28L282-392q-16 15-37 23.5t-45 8.5q-50 0-85-35t-35-85q0-50 35-85t85-35q24 0 45 8.5t37 23.5l281-164q-2-7-2.5-13.5T560-760q0-50 35-85t85-35q50 0 85 35t35 85q0 50-35 85t-85 35q-24 0-45-8.5T598-672L317-508q2 7 2.5 13.5t.5 14.5q0 8-.5 14.5T317-452l281 164q16-15 37-23.5t45-8.5q50 0 85 35t35 85q0 50-35 85t-85 35zm0-80q17 0 28.5-11.5T720-200q0-17-11.5-28.5T680-240q-17 0-28.5 11.5T640-200q0 17 11.5 28.5T680-160zM200-440q17 0 28.5-11.5T240-480q0-17-11.5-28.5T200-520q-17 0-28.5 11.5T160-480q0 17 11.5 28.5T200-440zm480-280q17 0 28.5-11.5T720-760q0-17-11.5-28.5T680-800q-17 0-28.5 11.5T640-760q0 17 11.5 28.5T680-720zm0 520zM200-480zm480-280z"/></symbol><symbol id="list-numbered" viewBox="0 -960 960 960"><path d="M120-80v-60h100v-30h-60v-60h60v-30H120v-60h120q17 0 28.5 11.5T280-280v40q0 17-11.5 28.5T240-200q17 0 28.5 11.5T280-160v40q0 17-11.5 28.5T240-80H120zm0-280v-110q0-17 11.5-28.5T160-510h60v-30H120v-60h120q17 0 28.5 11.5T280-560v70q0 17-11.5 28.5T240-450h-60v30h100v60H120zm60-280v-180h-60v-60h120v240h-60zm180 440v-80h480v80H360zm0-240v-80h480v80H360zm0-240v-80h480v80H360z"/></symbol><symbol id="table" viewBox="0 -960 960 960"><path d="M200-120q-33 0-56.5-23.5T120-200v-560q0-33 23.5-56.5T200-840h560q33 0 56.5 23.5T840-760v560q0 33-23.5 56.5T760-120H200zm240-240H200v160h240v-160zm80 0v160h240v-160H520zm-80-80v-160H200v160h240zm80 0h240v-160H520v160zM200-680h560v-80H200v80z"/></symbol><symbol id="menu" viewBox="0 -960 960 960"><path d="M120-240v-80h720v80H120zm0-200v-80h720v80H120zm0-200v-80h720v80H120z"/></symbol><symbol id="strikethrough" viewBox="0 -960 960 960"><path d="M80-400v-80h800v80H80zm340-160v-120H200v-120h560v120H540v120H420zm0 400v-160h120v160H420z"/></symbol><symbol id="swipe" viewBox="0 0 24 24"><g id="Swipe"><path id="Vector" fill="#54B8B5" d="M12 3.312c-1.467 0-2.87.275-4.21.823A13.733 13.733 0 0 0 4.1 6.38h2.496a.58.58 0 0 1 .596.595.58.58 0 0 1-.596.597H3.404a.875.875 0 0 1-.644-.26.875.875 0 0 1-.26-.644V3.476a.579.579 0 0 1 .596-.596.58.58 0 0 1 .596.596v1.67a14.653 14.653 0 0 1 3.903-2.222A12.283 12.283 0 0 1 12 2.12c1.528 0 2.996.268 4.405.804a14.653 14.653 0 0 1 3.903 2.221v-1.67a.579.579 0 0 1 .595-.595.58.58 0 0 1 .597.596v3.192c0 .256-.087.47-.26.644a.875.875 0 0 1-.644.26h-3.192a.58.58 0 0 1-.596-.596.58.58 0 0 1 .596-.596H19.9a13.733 13.733 0 0 0-3.69-2.245A11.008 11.008 0 0 0 12 3.312zm-.175 18.568a2.716 2.716 0 0 1-1.942-.808l-4.439-4.444a.816.816 0 0 1-.232-.568.77.77 0 0 1 .227-.582l.046-.046a1.54 1.54 0 0 1 .725-.403c.276-.066.55-.062.823.012l2.217.58V7.38c0-.213.072-.391.216-.535A.726.726 0 0 1 10 6.63c.213 0 .391.072.534.215a.725.725 0 0 1 .216.535v9.048c0 .301-.12.542-.361.723a.873.873 0 0 1-.789.156l-1.88-.518 3.232 3.223a1.275 1.275 0 0 0 .873.368h3.925c.627 0 1.159-.219 1.595-.655.437-.437.655-.969.655-1.595v-4c0-.213.072-.391.216-.535a.726.726 0 0 1 .534-.215c.213 0 .391.071.535.215a.726.726 0 0 1 .215.535v4c0 1.036-.366 1.92-1.098 2.652a3.612 3.612 0 0 1-2.65 1.098h-3.927zm1.089-11.5c.212 0 .39.071.534.215a.726.726 0 0 1 .216.535v3.25c0 .212-.072.39-.216.534a.726.726 0 0 1-.535.216.725.725 0 0 1-.534-.216.726.726 0 0 1-.215-.534v-3.25c0-.213.071-.391.215-.535a.726.726 0 0 1 .535-.215zm2.923 1c.212 0 .39.071.534.215a.727.727 0 0 1 .216.535v2.25c0 .212-.072.39-.216.534a.726.726 0 0 1-.535.216.725.725 0 0 1-.534-.216.726.726 0 0 1-.216-.534v-2.25c0-.213.072-.391.216-.535a.726.726 0 0 1 .535-.215z"/></g></symbol><symbol id="format-quote" viewBox="0 -960 960 960"><path d="M228-240l92-160q-66 0-113-47t-47-113q0-66 47-113t113-47q66 0 113 47t47 113q0 23-5.5 42.5T458-480L320-240h-92zm360 0l92-160q-66 0-113-47t-47-113q0-66 47-113t113-47q66 0 113 47t47 113q0 23-5.5 42.5T818-480L680-240h-92zM320-500q25 0 42.5-17.5T380-560q0-25-17.5-42.5T320-620q-25 0-42.5 17.5T260-560q0 25 17.5 42.5T320-500zm360 0q25 0 42.5-17.5T740-560q0-25-17.5-42.5T680-620q-25 0-42.5 17.5T620-560q0 25 17.5 42.5T680-500zm0-60zm-360 0z"/></symbol><symbol id="align-center" viewBox="0 -960 960 960"><path d="M120-120v-80h720v80H120zm160-160v-80h400v80H280zM120-440v-80h720v80H120zm160-160v-80h400v80H280zM120-760v-80h720v80H120z"/></symbol><symbol id="youtube-activity" viewBox="0 -960 960 960"><path d="M616-242q-27 1-51.5 1.5t-43.5.5h-41q-71 0-133-2-53-2-104.5-5.5T168-257q-26-7-45-26t-26-45q-6-23-9.5-56T82-447q-2-36-2-73t2-73q2-30 5.5-63t9.5-56q7-26 26-45t45-26q23-6 74.5-9.5T347-798q62-2 133-2t133 2q53 2 104.5 5.5T792-783q26 7 45 26t26 45q6 23 9.5 56t5.5 63q2 36 2 73v17q-19-8-39-12.5t-41-4.5q-83 0-141.5 58.5T600-320q0 21 4 40.5t12 37.5zM400-400l208-120-208-120v240zm360 200v-80h-80v-80h80v-80h80v80h80v80h-80v80h-80z"/></symbol><symbol id="bold" viewBox="0 -960 960 960"><path d="M272-200v-560h221q65 0 120 40t55 111q0 51-23 78.5T602-491q25 11 55.5 41t30.5 90q0 89-65 124.5T501-200H272zm121-112h104q48 0 58.5-24.5T566-372q0-11-10.5-35.5T494-432H393v120zm0-228h93q33 0 48-17t15-38q0-24-17-39t-44-15h-95v109z"/></symbol><symbol id="align-right" viewBox="0 -960 960 960"><path d="M120-760v-80h720v80H120zm240 160v-80h480v80H360zM120-440v-80h720v80H120zm240 160v-80h480v80H360zM120-120v-80h720v80H120z"/></symbol><symbol id="align-left" viewBox="0 -960 960 960"><path d="M120-120v-80h720v80H120zm0-160v-80h480v80H120zm0-160v-80h720v80H120zm0-160v-80h480v80H120zm0-160v-80h720v80H120z"/></symbol><symbol id="align-justify" viewBox="0 -960 960 960"><path d="M120-120v-80h720v80H120zm0-160v-80h720v80H120zm0-160v-80h720v80H120zm0-160v-80h720v80H120zm0-160v-80h720v80H120z"/></symbol><symbol id="arrow-back" viewBox="0 -960 960 960"><path d="M400-80L0-480l400-400 71 71-329 329 329 329-71 71z"/></symbol><symbol id="format-image" viewBox="0 -960 960 960"><path d="M200-120q-33 0-56.5-23.5T120-200v-560q0-33 23.5-56.5T200-840h560q33 0 56.5 23.5T840-760v560q0 33-23.5 56.5T760-120H200zm0-80h560v-560H200v560zm40-80h480L570-480 450-320l-90-120-120 160zm-40 80v-560 560z"/></symbol><symbol id="close" viewBox="0 -960 960 960"><path d="M256-200l-56-56 224-224-224-224 56-56 224 224 224-224 56 56-224 224 224 224-56 56-224-224-224 224z"/></symbol><symbol id="cell-merge" viewBox="0 -960 960 960"><path d="M120-120v-240h80v160h160v80H120zm480 0v-80h160v-160h80v240H600zM287-327l-57-56 57-57H80v-80h207l-57-57 57-56 153 153-153 153zm386 0L520-480l153-153 57 56-57 57h207v80H673l57 57-57 56zM120-600v-240h240v80H200v160h-80zm640 0v-160H600v-80h240v240h-80z"/></symbol><symbol id="color-text" viewBox="0 -960 960 960"><path d="M80 0v-160h800V0H80zm140-280l210-560h100l210 560h-96l-50-144H368l-52 144h-96zm176-224h168l-82-232h-4l-82 232z"/></symbol><symbol id="format-thumbnail" viewBox="0 -960 960 960"><path d="M120-200q-33 0-56.5-23.5T40-280v-400q0-33 23.5-56.5T120-760h400q33 0 56.5 23.5T600-680v400q0 33-23.5 56.5T520-200H120zm600-320q-17 0-28.5-11.5T680-560v-160q0-17 11.5-28.5T720-760h160q17 0 28.5 11.5T920-720v160q0 17-11.5 28.5T880-520H720zm40-80h80v-80h-80v80zM120-280h400v-400H120v400zm40-80h320L375-500l-75 100-55-73-85 113zm560 160q-17 0-28.5-11.5T680-240v-160q0-17 11.5-28.5T720-440h160q17 0 28.5 11.5T920-400v160q0 17-11.5 28.5T880-200H720zm40-80h80v-80h-80v80zm-640 0v-400 400zm640-320v-80 80zm0 320v-80 80z"/></symbol><symbol id="underlined" viewBox="0 -960 960 960"><path d="M200-120v-80h560v80H200zm280-160q-101 0-157-63t-56-167v-330h103v336q0 56 28 91t82 35q54 0 82-35t28-91v-336h103v330q0 104-56 167t-157 63z"/></symbol><symbol id="format-list-bullet" viewBox="0 -960 960 960"><path d="M360-200v-80h480v80H360zm0-240v-80h480v80H360zm0-240v-80h480v80H360zM200-160q-33 0-56.5-23.5T120-240q0-33 23.5-56.5T200-320q33 0 56.5 23.5T280-240q0 33-23.5 56.5T200-160zm0-240q-33 0-56.5-23.5T120-480q0-33 23.5-56.5T200-560q33 0 56.5 23.5T280-480q0 33-23.5 56.5T200-400zm0-240q-33 0-56.5-23.5T120-720q0-33 23.5-56.5T200-800q33 0 56.5 23.5T280-720q0 33-23.5 56.5T200-640z"/></symbol><symbol id="text-box" viewBox="0 -960 960 960"><path d="M440-440v-80h80v80h-80zm-80 80v-80h80v80h-80zm160 0v-80h80v80h-80zm80-80v-80h80v80h-80zm-320 0v-80h80v80h-80zm-80 320q-33 0-56.5-23.5T120-200v-560q0-33 23.5-56.5T200-840h560q33 0 56.5 23.5T840-760v560q0 33-23.5 56.5T760-120H200zm80-80h80v-80h-80v80zm160 0h80v-80h-80v80zm320 0v-80 80zm-560-80h80v-80h80v80h80v-80h80v80h80v-80h80v80h80v-80h-80v-80h80v-320H200v320h80v80h-80v80zm0 80v-560 560zm560-240v80-80zM600-280v80h80v-80h-80z"/></symbol><symbol id="h2" viewBox="0 -960 960 960"><path d="M120-280v-400h80v160h160v-160h80v400h-80v-160H200v160h-80zm400 0v-160q0-33 23.5-56.5T600-520h160v-80H520v-80h240q33 0 56.5 23.5T840-600v80q0 33-23.5 56.5T760-440H600v80h240v80H520z"/></symbol><symbol id="h1" viewBox="0 -960 960 960"><path d="M200-280v-400h80v160h160v-160h80v400h-80v-160H280v160h-80zm480 0v-320h-80v-80h160v400h-80z"/></symbol><symbol id="h6" viewBox="0 -960 960 960"><path d="M120-280v-400h80v160h160v-160h80v400h-80v-160H200v160h-80zm480 0q-33 0-56.5-23.5T520-360v-240q0-33 23.5-56.5T600-680h240v80H600v80h160q33 0 56.5 23.5T840-440v80q0 33-23.5 56.5T760-280H600zm0-160v80h160v-80H600z"/></symbol><symbol id="h4" viewBox="0 -960 960 960"><path d="M120-280v-400h80v160h160v-160h80v400h-80v-160H200v160h-80zm600 0v-120H520v-280h80v200h120v-200h80v200h80v80h-80v120h-80z"/></symbol><symbol id="h5" viewBox="0 -960 960 960"><path d="M120-280v-400h80v160h160v-160h80v400h-80v-160H200v160h-80zm400 0v-80h240v-80H520v-240h320v80H600v80h160q33 0 56.5 23.5T840-440v80q0 33-23.5 56.5T760-280H520z"/></symbol><symbol id="h3" viewBox="0 -960 960 960"><path d="M120-280v-400h80v160h160v-160h80v400h-80v-160H200v160h-80zm400 0v-80h240v-80H600v-80h160v-80H520v-80h240q33 0 56.5 23.5T840-600v240q0 33-23.5 56.5T760-280H520z"/></symbol><symbol id="add-row-below" viewBox="0 -960 960 960"><path d="M200-560h560v-240H200v240zm-80 400v-720h720v720H680v-80h80v-240H200v240h80v80H120zm360-320zm0-80v80-80zm0 0zM440-80v-80h-80v-80h80v-80h80v80h80v80h-80v80h-80z"/></symbol><symbol id="add-column-right" viewBox="0 -960 960 960"><path d="M160-760v560h240v-560H160zM80-120v-720h720v160h-80v-80H480v560h240v-80h80v160H80zm400-360zm-80 0h80-80zm0 0zm320 120v-80h-80v-80h80v-80h80v80h80v80h-80v80h-80z"/></symbol><symbol id="delete" viewBox="0 -960 960 960"><path d="M280-120q-33 0-56.5-23.5T200-200v-520h-40v-80h200v-40h240v40h200v80h-40v520q0 33-23.5 56.5T680-120H280zm400-600H280v520h400v-520zM360-280h80v-360h-80v360zm160 0h80v-360h-80v360zM280-720v520-520z"/></symbol><symbol id="table-delete-column" viewBox="0 0 24 24"><path fill="#1F2328" fill-rule="evenodd" d="M20 16v4H4V4h16v4h-1.5V5.5H15v13h3.5V16H20zm-14.5.5v2h3v-2h-3zm4.5 0v2h3.5v-2H10zm3.5-8.48V5.5H10v2.52h3.5zm-5 0V5.5h-3v2.52h3zm0 1.5h-3v1.98h3V9.52zm0 3.48h-3v2h3v-2zm1.5 0v2h3.5v-2H10zm0-1.5h3.5V9.52H10v1.98z" clip-rule="evenodd"/><path fill="#1F2328" fill-rule="evenodd" d="M18.718 13.06l1.22 1.22 1.06-1.06-1.22-1.22 1.22-1.22-1.06-1.06-1.22 1.22-1.22-1.22-1.06 1.06L17.656 12l-1.22 1.22 1.06 1.06 1.22-1.22z" clip-rule="evenodd"/></symbol></svg>