<svg xmlns="http://www.w3.org/2000/svg"><symbol id="align-justify" viewBox="0 -960 960 960"><path d="M120-120v-80h720v80H120zm0-160v-80h720v80H120zm0-160v-80h720v80H120zm0-160v-80h720v80H120zm0-160v-80h720v80H120z"/></symbol><symbol id="align-center" viewBox="0 -960 960 960"><path d="M120-120v-80h720v80H120zm160-160v-80h400v80H280zM120-440v-80h720v80H120zm160-160v-80h400v80H280zM120-760v-80h720v80H120z"/></symbol><symbol id="bold" viewBox="0 -960 960 960"><path d="M272-200v-560h221q65 0 120 40t55 111q0 51-23 78.5T602-491q25 11 55.5 41t30.5 90q0 89-65 124.5T501-200H272zm121-112h104q48 0 58.5-24.5T566-372q0-11-10.5-35.5T494-432H393v120zm0-228h93q33 0 48-17t15-38q0-24-17-39t-44-15h-95v109z"/></symbol><symbol id="align-left" viewBox="0 -960 960 960"><path d="M120-120v-80h720v80H120zm0-160v-80h480v80H120zm0-160v-80h720v80H120zm0-160v-80h480v80H120zm0-160v-80h720v80H120z"/></symbol><symbol id="format-image" viewBox="0 -960 960 960"><path d="M200-120q-33 0-56.5-23.5T120-200v-560q0-33 23.5-56.5T200-840h560q33 0 56.5 23.5T840-760v560q0 33-23.5 56.5T760-120H200zm0-80h560v-560H200v560zm40-80h480L570-480 450-320l-90-120-120 160zm-40 80v-560 560z"/></symbol><symbol id="color-text" viewBox="0 -960 960 960"><path d="M80 0v-160h800V0H80zm140-280l210-560h100l210 560h-96l-50-144H368l-52 144h-96zm176-224h168l-82-232h-4l-82 232z"/></symbol><symbol id="italic" viewBox="0 -960 960 960"><path d="M200-200v-100h160l120-360H320v-100h400v100H580L460-300h140v100H200z"/></symbol><symbol id="link" viewBox="0 -960 960 960"><path d="M440-280H280q-83 0-141.5-58.5T80-480q0-83 58.5-141.5T280-680h160v80H280q-50 0-85 35t-35 85q0 50 35 85t85 35h160v80zM320-440v-80h320v80H320zm200 160v-80h160q50 0 85-35t35-85q0-50-35-85t-85-35H520v-80h160q83 0 141.5 58.5T880-480q0 83-58.5 141.5T680-280H520z"/></symbol><symbol id="align-right" viewBox="0 -960 960 960"><path d="M120-760v-80h720v80H120zm240 160v-80h480v80H360zM120-440v-80h720v80H120zm240 160v-80h480v80H360zM120-120v-80h720v80H120z"/></symbol><symbol id="ink-highlighter" viewBox="0 -960 960 960"><path d="M80 0v-160h800V0H80zm504-480L480-584 320-424l103 104 161-160zm-47-160l103 103 160-159-104-104-159 160zm-84-29l216 216-189 190q-24 24-56.5 24T367-263l-27 23H140l126-125q-24-24-25-57.5t23-57.5l189-189zm0 0l187-187q24-24 56.5-24t56.5 24l104 103q24 24 24 56.5T857-640L669-453 453-669z"/></symbol><symbol id="strikethrough" viewBox="0 -960 960 960"><path d="M80-400v-80h800v80H80zm340-160v-120H200v-120h560v120H540v120H420zm0 400v-160h120v160H420z"/></symbol><symbol id="table" viewBox="0 -960 960 960"><path d="M200-120q-33 0-56.5-23.5T120-200v-560q0-33 23.5-56.5T200-840h560q33 0 56.5 23.5T840-760v560q0 33-23.5 56.5T760-120H200zm240-240H200v160h240v-160zm80 0v160h240v-160H520zm-80-80v-160H200v160h240zm80 0h240v-160H520v160zM200-680h560v-80H200v80z"/></symbol><symbol id="underlined" viewBox="0 -960 960 960"><path d="M200-120v-80h560v80H200zm280-160q-101 0-157-63t-56-167v-330h103v336q0 56 28 91t82 35q54 0 82-35t28-91v-336h103v330q0 104-56 167t-157 63z"/></symbol><symbol id="list-numbered" viewBox="0 -960 960 960"><path d="M120-80v-60h100v-30h-60v-60h60v-30H120v-60h120q17 0 28.5 11.5T280-280v40q0 17-11.5 28.5T240-200q17 0 28.5 11.5T280-160v40q0 17-11.5 28.5T240-80H120zm0-280v-110q0-17 11.5-28.5T160-510h60v-30H120v-60h120q17 0 28.5 11.5T280-560v70q0 17-11.5 28.5T240-450h-60v30h100v60H120zm60-280v-180h-60v-60h120v240h-60zm180 440v-80h480v80H360zm0-240v-80h480v80H360zm0-240v-80h480v80H360z"/></symbol><symbol id="share" viewBox="0 -960 960 960"><path d="M680-80q-50 0-85-35t-35-85q0-6 3-28L282-392q-16 15-37 23.5t-45 8.5q-50 0-85-35t-35-85q0-50 35-85t85-35q24 0 45 8.5t37 23.5l281-164q-2-7-2.5-13.5T560-760q0-50 35-85t85-35q50 0 85 35t35 85q0 50-35 85t-85 35q-24 0-45-8.5T598-672L317-508q2 7 2.5 13.5t.5 14.5q0 8-.5 14.5T317-452l281 164q16-15 37-23.5t45-8.5q50 0 85 35t35 85q0 50-35 85t-85 35zm0-80q17 0 28.5-11.5T720-200q0-17-11.5-28.5T680-240q-17 0-28.5 11.5T640-200q0 17 11.5 28.5T680-160zM200-440q17 0 28.5-11.5T240-480q0-17-11.5-28.5T200-520q-17 0-28.5 11.5T160-480q0 17 11.5 28.5T200-440zm480-280q17 0 28.5-11.5T720-760q0-17-11.5-28.5T680-800q-17 0-28.5 11.5T640-760q0 17 11.5 28.5T680-720zm0 520zM200-480zm480-280z"/></symbol><symbol id="sentiment-satisfied" viewBox="0 -960 960 960"><path d="M620-520q25 0 42.5-17.5T680-580q0-25-17.5-42.5T620-640q-25 0-42.5 17.5T560-580q0 25 17.5 42.5T620-520zm-280 0q25 0 42.5-17.5T400-580q0-25-17.5-42.5T340-640q-25 0-42.5 17.5T280-580q0 25 17.5 42.5T340-520zm140 260q68 0 123.5-38.5T684-400h-66q-22 37-58.5 58.5T480-320q-43 0-79.5-21.5T342-400h-66q25 63 80.5 101.5T480-260zm0 180q-83 0-156-31.5T197-197q-54-54-85.5-127T80-480q0-83 31.5-156T197-763q54-54 127-85.5T480-880q83 0 156 31.5T763-763q54 54 85.5 127T880-480q0 83-31.5 156T763-197q-54 54-127 85.5T480-80zm0-400zm0 320q134 0 227-93t93-227q0-134-93-227t-227-93q-134 0-227 93t-93 227q0 134 93 227t227 93z"/></symbol></svg>